<svg xmlns="http://www.w3.org/2000/svg" width="100" height="100" viewBox="0 0 100 100">
  <g id="DribbbleLogo" style="isolation: isolate">
    <path id="Vector" d="M100,0V100H0V0Z" fill="none" style="isolation: isolate"/>
    <path id="Vector-2" data-name="Vector" d="M37.5,75A37.5,37.5,0,1,1,75,37.5,37.5,37.5,0,0,1,37.5,75Z" transform="translate(12.5 12.5)" fill="none" stroke="#fff" stroke-linecap="round" stroke-linejoin="round" stroke-width="2" style="isolation: isolate"/>
    <path id="Vector-3" data-name="Vector" d="M0,30.2A62.539,62.539,0,0,1,53.516,0c2.109,0,4.18.117,6.25.313" transform="translate(27.734 50)" fill="none" stroke="#fff" stroke-linecap="round" stroke-linejoin="round" stroke-width="2" style="isolation: isolate"/>
    <path id="Vector-4" data-name="Vector" d="M60.2,0A62.421,62.421,0,0,1,38.573,16.97a62.422,62.422,0,0,1-26.815,6.038A64.54,64.54,0,0,1,0,21.914" transform="translate(13.242 20.742)" fill="none" stroke="#fff" stroke-linecap="round" stroke-linejoin="round" stroke-width="2" style="isolation: isolate"/>
    <path id="Vector-5" data-name="Vector" d="M0,0A62.7,62.7,0,0,1,25.961,29.72a62.694,62.694,0,0,1,3.063,39.343" transform="translate(33.555 16.289)" fill="none" stroke="#fff" stroke-linecap="round" stroke-linejoin="round" stroke-width="2" style="isolation: isolate"/>
  </g>
</svg>
