<svg xmlns="http://www.w3.org/2000/svg" width="100" height="100" viewBox="0 0 100 100">
  <g id="InstagramLogo" style="isolation: isolate">
    <path id="Vector" d="M100,0V100H0V0Z" fill="none" style="isolation: isolate"/>
    <path id="Vector-2" data-name="Vector" d="M15.625,31.25A15.625,15.625,0,1,1,31.25,15.625,15.625,15.625,0,0,1,15.625,31.25Z" transform="translate(34.375 34.375)" fill="none" stroke="#fff" stroke-width="2" style="isolation: isolate"/>
    <path id="Vector-3" data-name="Vector" d="M53.125,0a18.75,18.75,0,0,1,18.75,18.75V53.125a18.75,18.75,0,0,1-18.75,18.75H18.75A18.75,18.75,0,0,1,0,53.125V18.75A18.75,18.75,0,0,1,18.75,0Z" transform="translate(14.063 14.063)" fill="none" stroke="#fff" stroke-linecap="round" stroke-linejoin="round" stroke-width="2" style="isolation: isolate"/>
    <path id="Vector-4" data-name="Vector" d="M4.688,9.375A4.688,4.688,0,1,1,9.375,4.688,4.687,4.687,0,0,1,4.688,9.375Z" transform="translate(65.625 25)" fill="#fff" style="isolation: isolate"/>
  </g>
</svg>
