<svg xmlns="http://www.w3.org/2000/svg" width="100" height="100" viewBox="0 0 100 100">
  <g id="LinkedinLogo" style="isolation: isolate">
    <path id="Vector" d="M100,0V100H0V0Z" fill="none" style="isolation: isolate"/>
    <path id="Vector-2" data-name="Vector" d="M6.25,0A6.25,6.25,0,0,0,0,6.25V71.875a6.25,6.25,0,0,0,6.25,6.25H71.875a6.25,6.25,0,0,0,6.25-6.25V6.25A6.25,6.25,0,0,0,71.875,0Zm19.4,60.022a3.125,3.125,0,0,1-5.335-2.21v-25a3.125,3.125,0,0,1,6.25,0v25A3.125,3.125,0,0,1,25.647,60.022ZM20.833,24.21a4.688,4.688,0,1,1,2.6.79A4.687,4.687,0,0,1,20.833,24.21ZM60.022,60.022a3.125,3.125,0,0,1-5.335-2.21V43.75a7.813,7.813,0,1,0-15.625,0V57.813a3.125,3.125,0,0,1-6.25,0v-25a3.125,3.125,0,0,1,6.172-.7A14.062,14.062,0,0,1,60.938,43.75V57.813A3.125,3.125,0,0,1,60.022,60.022Z" transform="translate(10.938 10.938)" fill="#fff" style="isolation: isolate"/>
  </g>
</svg>
